# xmcd
#
# Track frame offsets:
#	150
#	2309
#	12752
#	27236
#	44013
#	58097
#	59456
#	73833
#	79770
#	98934
#	126768
#	128086
#	143752
#	153457
#	161350
#	171128
#	189010
#	208105
#	210993
#	225062
#	245424
#	247315
#	256445
#	323264
#	338213
#	346656
#
# Disc length: 4649 seconds
# Revision: 0
# Processed by: cddbd v1.5.2PL0 Copyright (c) Steve Scherf et al.
# Submitted via: dBpowerAMP V12.0
#
DISCID=5a12271a
DTITLE=Andrew Liles - The Flesh Creeping Gonzoid and Other Imaginary Creatures-Volume 2
DYEAR=2011
DGENRE=Industrial
TTITLE0=Ringtone
TTITLE1=An Ordinary Extraordinary Woman
TTITLE2=The Pleasure Tract Or Medial Forebrain Bundle
TTITLE3=The Flesh Creeping Gonzoid
TTITLE4=In The Bushes Near The Industrial Estate
TTITLE5=16 Seconds Of 21
TTITLE6=Soft Focus (Long Version)
TTITLE7=A Dead Introduction To A Formal Relative
TTITLE8=A Musty Smell On Jermyn Street
TTITLE9=A Certain Step
TTITLE10=Benedict XV
TTITLE11=Steam Shower For Two
TTITLE12=DT1 Version 5
TTITLE13=The Vinegar Leaked Teat
TTITLE14=Razzle Lady Crumbs
TTITLE15=DT1 - Version 1
TTITLE16=Christmas In Reverse Or A Backwards Birthday
TTITLE17=Ha!
TTITLE18=DT Version 4
TTITLE19=It's Been So Long I'm Fucked If I Know
TTITLE20=O' God Last Night
TTITLE21=DT - Version 6
TTITLE22=Lovesong (1-10: Extended Version)
TTITLE23=Just For Christmas (Slayer Bells)
TTITLE24=The Comfortable Illusion Of Meaning
TTITLE25=Wibby
EXTD=
EXTT0=
EXTT1=
EXTT2=
EXTT3=
EXTT4=
EXTT5=
EXTT6=
EXTT7=
EXTT8=
EXTT9=
EXTT10=
EXTT11=
EXTT12=
EXTT13=
EXTT14=
EXTT15=
EXTT16=
EXTT17=
EXTT18=
EXTT19=
EXTT20=
EXTT21=
EXTT22=
EXTT23=
EXTT24=
EXTT25=
PLAYORDER=
